<svg width="56" height="44" viewBox="0 0 56 44" fill="none" xmlns="http://www.w3.org/2000/svg">
<g filter="url(#filter0_d_34_139)">
<path d="M43.0781 35.3044C43.9688 36.0449 45.2156 36.2136 46.275 35.7168C47.3344 35.22 48 34.1608 48 32.9985V3.00402C48 1.84173 47.325 0.782552 46.275 0.285767C45.225 -0.211017 43.9781 -0.0516708 43.0781 0.698192L27 14.0926V18.0013V21.9099L43.0781 35.3044ZM24 26.9996V18.0013V6.00347V3.00402C24 1.84173 23.325 0.782552 22.275 0.285767C21.225 -0.211017 19.9781 -0.0516708 19.0781 0.698192L1.07812 15.6954C0.39375 16.2672 0 17.1108 0 18.0013C0 18.8917 0.39375 19.7353 1.07812 20.3071L19.0781 35.3044C19.9688 36.0449 21.2156 36.2136 22.275 35.7168C23.3344 35.22 24 34.1608 24 32.9985V26.9996Z" fill="white"/>
</g>
<defs>
<filter id="filter0_d_34_139" x="0" y="0" width="56" height="44" filterUnits="userSpaceOnUse" color-interpolation-filters="sRGB">
<feFlood flood-opacity="0" result="BackgroundImageFix"/>
<feColorMatrix in="SourceAlpha" type="matrix" values="0 0 0 0 0 0 0 0 0 0 0 0 0 0 0 0 0 0 127 0" result="hardAlpha"/>
<feOffset dx="4" dy="4"/>
<feGaussianBlur stdDeviation="2"/>
<feComposite in2="hardAlpha" operator="out"/>
<feColorMatrix type="matrix" values="0 0 0 0 0 0 0 0 0 0 0 0 0 0 0 0 0 0 0.5 0"/>
<feBlend mode="normal" in2="BackgroundImageFix" result="effect1_dropShadow_34_139"/>
<feBlend mode="normal" in="SourceGraphic" in2="effect1_dropShadow_34_139" result="shape"/>
</filter>
</defs>
</svg>
